<svg t="1725430419582" class="icon" viewBox="0 0 1024 1024" version="1.1" xmlns="http://www.w3.org/2000/svg" p-id="30309" data-spm-anchor-id="a313x.search_index.0.i11.15b63a81fyKyUx" width="1024" height="1024"><path d="M870.4 834.133333L603.733333 567.466667c-12.8-12.8-32-12.8-44.8 0s-12.8 32 0 44.8l266.666667 266.666666c6.4 6.4 14.933333 8.533333 23.466667 8.533334s17.066667-2.133333 23.466666-8.533334c10.666667-10.666667 10.666667-32-2.133333-44.8zM657.066667 465.066667c8.533333-2.133333 14.933333-6.4 17.066666-14.933334 2.133333-8.533333 0-17.066667-6.4-21.333333L554.666667 317.866667l27.733333-157.866667c2.133333-8.533333-2.133333-17.066667-8.533333-21.333333-6.4-4.266667-14.933333-6.4-23.466667-2.133334l-140.8 74.666667-140.8-74.666667c-6.4-4.266667-14.933333-2.133333-23.466667 2.133334-6.4 4.266667-10.666667 12.8-8.533333 21.333333l27.733333 157.866667L149.333333 428.8c-6.4 6.4-8.533333 14.933333-6.4 21.333333 2.133333 8.533333 8.533333 12.8 17.066667 14.933334l157.866667 23.466666 70.4 142.933334c4.266667 6.4 10.666667 12.8 19.2 12.8s14.933333-4.266667 19.2-12.8l70.4-142.933334 160-23.466666z m-192-6.4l-55.466667 115.2-55.466667-115.2c-2.133333-6.4-8.533333-10.666667-17.066666-10.666667l-125.866667-19.2 91.733333-89.6c4.266667-4.266667 6.4-12.8 6.4-19.2l-21.333333-125.866667 113.066667 59.733334c6.4 4.266667 12.8 4.266667 19.2 0L533.333333 194.133333 512 320c-2.133333 6.4 2.133333 14.933333 6.4 19.2l91.733333 89.6-125.866666 19.2c-8.533333 0-14.933333 4.266667-19.2 10.666667zM283.733333 648.533333L256 729.6l-83.2 27.733333 83.2 27.733334 27.733333 83.2 27.733334-83.2 81.066666-27.733334-81.066666-27.733333zM501.333333 629.333333l-12.8 40.533334-40.533333 14.933333 40.533333 12.8 12.8 40.533333 14.933334-40.533333 40.533333-12.8-40.533333-14.933333z" fill="#f56606" p-id="30310" data-spm-anchor-id="a313x.search_index.0.i12.15b63a81fyKyUx" class=""></path></svg>